<?xml version="1.0" encoding="UTF-8" standalone="no"?>
<svg 
  xmlns="http://www.w3.org/2000/svg"
  viewBox="0 0 300 300" 
  preserveAspectRatio="xMidYMid meet"
  class="responsive-svg"
>
  <g transform="translate(0,300) scale(0.1,-0.1)" fill="#ddd" stroke="none">
    <path d="M1830 2543 c-227 -23 -468 -80 -629 -148 -313 -132 -552 -380 -585
    -606 -13 -92 36 -248 107 -341 20 -27 36 -48 34 -49 -19 -4 -672 -89 -689 -89
    -4 0 -8 -7 -8 -15 0 -13 9 -15 47 -10 27 3 145 12 263 20 327 23 370 27 370
    37 0 6 -17 7 -37 4 -49 -7 -311 -17 -298 -11 6 2 83 13 173 24 90 11 168 23
    173 27 6 3 33 -16 62 -43 29 -27 65 -57 80 -69 l28 -20 -30 -64 c-60 -126 -37
    -206 73 -260 163 -81 336 -52 336 56 0 51 -44 92 -205 188 -71 44 -131 80
    -133 81 -2 2 22 41 52 88 55 84 57 85 101 89 25 2 45 1 45 -2 0 -3 -20 -41
    -45 -84 -25 -44 -44 -84 -42 -90 4 -11 48 53 98 141 23 40 27 42 89 52 145 22
    472 63 475 59 2 -2 -5 -14 -15 -28 -15 -20 -21 -23 -31 -12 -31 30 -92 -4
    -118 -66 -11 -27 -48 -58 -58 -48 -3 2 9 25 26 50 56 81 38 89 -34 15 -66 -67
    -115 -92 -115 -58 0 4 16 24 35 45 19 22 35 42 35 47 0 21 -30 1 -80 -53 -53
    -57 -80 -74 -80 -49 0 6 14 27 30 46 29 32 33 62 7 46 -6 -4 -26 -6 -43 -4
    -37 3 -85 -33 -104 -79 -22 -54 9 -79 58 -45 17 12 26 13 42 5 17 -9 27 -8 47
    5 18 12 28 14 36 6 17 -17 49 -13 77 9 31 25 44 25 31 2 -8 -14 -109 -59 -198
    -87 -7 -3 -13 -12 -13 -20 0 -12 6 -15 19 -10 25 8 60 -25 68 -65 3 -17 11
    -30 17 -30 6 0 33 40 61 88 38 69 58 94 88 110 30 17 42 19 56 10 15 -9 28 -6
    64 14 39 22 47 24 60 11 11 -11 28 -13 77 -7 56 6 69 12 107 47 42 39 56 40
    28 3 -42 -55 8 -47 68 12 46 44 48 45 33 15 -22 -43 -20 -63 5 -63 27 0 109
    57 109 75 0 21 -7 19 -52 -16 -21 -17 -42 -29 -45 -25 -3 3 8 29 25 57 18 27
    32 54 32 59 0 26 -23 13 -76 -40 -32 -33 -60 -57 -62 -55 -2 2 5 19 17 38 11
    19 21 39 21 46 0 25 -27 7 -89 -59 -74 -79 -109 -94 -56 -24 35 46 44 77 25
    89 -16 10 -79 -59 -86 -94 -9 -42 -55 -68 -67 -38 -3 8 22 43 56 79 l62 65
    200 28 c110 14 241 35 290 46 97 21 190 60 199 84 6 17 -10 20 -20 4 -22 -37
    -155 -69 -422 -104 -107 -14 -198 -27 -203 -30 -16 -11 -10 22 8 36 28 24 73
    91 73 111 0 36 -33 17 -119 -70 l-87 -88 -229 -33 c-127 -18 -247 -36 -267
    -41 -21 -4 -38 -5 -38 -1 0 3 21 37 45 75 42 64 59 126 36 126 -5 0 -34 -46
    -65 -103 -55 -103 -55 -103 -103 -114 -26 -6 -49 -10 -51 -9 -1 2 14 30 33 62
    62 102 166 314 160 324 -14 23 -28 4 -91 -122 -112 -224 -139 -266 -177 -272
    -17 -3 -72 -12 -122 -20 l-90 -14 -28 26 c-16 15 -50 70 -75 122 -42 85 -46
    102 -50 180 -3 69 0 96 18 142 48 129 184 289 326 385 172 117 411 204 686
    250 132 22 428 24 508 4 175 -44 273 -152 242 -268 -34 -127 -179 -242 -393
    -310 -49 -15 -89 -31 -89 -35 0 -9 150 38 218 68 113 50 234 158 268 239 18
    44 18 128 -1 164 -23 45 -102 108 -164 132 -108 41 -280 58 -431 42z m71 -900
    c-17 -31 -91 -106 -98 -100 -7 8 84 117 98 117 6 0 6 -6 0 -17z m-111 -128 c0
    -10 -40 -49 -45 -44 -6 7 24 49 36 49 5 0 9 -2 9 -5z m61 -42 c-5 -10 -16 -27
    -25 -38 -12 -16 -15 -17 -16 -4 0 8 9 25 20 37 25 26 34 28 21 5z m-166 -47
    c0 -21 -88 -76 -101 -64 -4 4 5 26 20 48 22 34 32 41 54 38 19 -2 27 -9 27
    -22z m-665 -11 c0 -11 -82 -135 -89 -135 -4 0 -34 23 -67 51 -32 28 -60 53
    -62 54 -1 1 44 9 100 17 57 9 106 16 111 17 4 0 7 -1 7 -4z m280 -15 c-10 -19
    -71 -70 -83 -70 -15 0 -5 21 24 55 34 39 78 50 59 15z m112 -169 l-29 -51 -23
    32 c-13 18 -19 33 -14 35 5 2 27 12 49 22 22 10 41 17 43 16 2 -2 -10 -26 -26
    -54z m-437 -11 c3 -5 53 -38 112 -72 58 -35 123 -78 145 -97 34 -29 39 -38 36
    -70 -2 -30 -9 -39 -38 -54 -70 -36 -233 -2 -302 64 -32 31 -38 42 -38 79 0 24
    11 67 26 101 25 55 45 72 59 49z"/>
    <path d="M2773 1414 c-7 -19 11 -39 26 -30 16 10 13 33 -4 40 -9 3 -18 -1 -22
    -10z"/>
    <path d="M2837 1423 c-14 -13 -6 -33 13 -33 13 0 20 7 20 20 0 19 -20 27 -33
    13z"/>
    <path d="M2665 1408 c-33 -4 -287 -35 -565 -68 -278 -33 -511 -62 -517 -65
    -15 -5 -17 11 -3 20 12 7 13 25 3 25 -15 0 -77 -59 -70 -66 6 -7 190 12 552
    56 88 11 272 33 409 50 224 26 285 39 259 52 -4 2 -35 1 -68 -4z"/>
  </g>
</svg>